<svg xmlns="http://www.w3.org/2000/svg" viewBox="0 0 200 160" aria-label="Kaffeelisten">
  <g fill="none" stroke="#D97706" stroke-width="2" stroke-linecap="round" stroke-linejoin="round">
    <path d="M40 60c0-3 3-6 8-6h70c5 0 8 3 8 6"/>
    <ellipse cx="83" cy="60" rx="43" ry="6"/>
    <path d="M40 60v40c0 14 12 26 26 26h34c14 0 26-12 26-26V60"/>
    <path d="M126 70h12c10 0 18 8 18 18s-8 18-18 18h-12"/>
    <path d="M70 28c-3 6 3 12 0 18"/>
    <path d="M83 22c-3 6 3 12 0 18"/>
    <path d="M96 28c-3 6 3 12 0 18"/>
  </g>
</svg>
