<svg xmlns="http://www.w3.org/2000/svg" viewBox="0 0 200 160" aria-hidden="true"><g fill="none" stroke="currentColor" stroke-width="2" stroke-linecap="round" stroke-linejoin="round">
      <path d="M50 60h70l-4 60c-1 8-7 14-15 14h-32c-8 0-14-6-15-14z"></path>
      <path d="M120 75h10c8 0 14 6 14 14v0c0 8-6 14-14 14h-10"></path>
      <path d="M48 60h74"></path>
      <path d="M85 22c0 6 0 8 0 14"></path>
      <path d="M70 30c4 4 4 8 0 12"></path>
      <path d="M100 30c-4 4-4 8 0 12"></path>
    </g></svg>