<?xml version="1.0" encoding="UTF-8"?>

<svg xmlns="http://www.w3.org/2000/svg" xmlns:xlink="http://www.w3.org/1999/xlink" version="1.1" id="ITC1-Logo_x5F_2016" x="0px" y="0px" viewBox="0 0 512 388.5" style="enable-background:new 0 0 512 388.5;" xml:space="preserve">

<g>
&#x9;<polygon class="st0" points="7.6,7.6 7.6,266.5 40.1,266.5 40.1,258.2 15.9,258.2 15.9,15.8 494.2,15.8 494.2,258.2 470.4,258.2    470.4,266.5 502.5,266.5 502.5,7.6  "></polygon>
&#x9;<path class="st0" d="M325.7,224.7h1.3c17,0,25.9-2.9,39.2-6v-43.8c-5.1,2.7-23.2,5.3-31.1,5.3c-25.1,0-38-16.9-38-42.5v-5.3   c0-18,5.8-31.2,17.1-38.3c12.9-8.1,36.6-6.5,52.1-0.9V49c-2.6-0.3-10-2.1-13.9-2.7c-4.5-0.7-10.6-1.2-15.9-1.2h-3.4   c-27.5,0-53.4,10.3-65.8,25c-13.7,16.1-22.6,38.2-22.6,67.7v7c0,10.1,3.2,26.3,6.2,33.7c4.3,10.9,7.9,17.2,15.6,24.8   C279.7,216.3,299.2,224.7,325.7,224.7z"></path>
&#x9;<polygon class="st0" points="203,224.7 203,88.8 240.3,88.8 240.3,46.4 118.2,46.4 118.2,88.8 155.6,88.8 155.6,224.7  "></polygon>
&#x9;<rect x="54" y="46.4" class="st0" width="47.8" height="178.3"></rect>
&#x9;<path class="st0" d="M78.1,249.8c-3.3-2.3-7.4-3.3-13.8-3.3c-3.9,0-7.5,0.2-10.3,0.6v30.6c1.9,0.2,4.7,0.5,8.7,0.5   c6.6,0,12-1.3,15.6-4c3.3-2.5,5.6-6.7,5.6-12.6C83.8,256.1,81.6,252.2,78.1,249.8z M64.3,272.7c-1,0-2,0-2.7-0.1v-20.4   c0.7-0.1,1.8-0.3,3.5-0.3c6.6,0,10.7,3.4,10.6,9.9C75.7,269.2,71.2,272.8,64.3,272.7z"></path>
&#x9;<polygon class="st0" points="106.8,264.7 119.2,264.7 119.2,259 106.8,259 106.8,252.5 119.9,252.5 119.9,246.7 99.1,246.7    99.1,277.9 120.6,277.9 120.6,272.1 106.8,272.1  "></polygon>
&#x9;<path class="st0" d="M151.3,265.5h5.2v6.5c-0.6,0.3-2,0.5-3.8,0.5c-6.3,0-10.6-3.8-10.6-10.2c0-6.8,4.8-10.1,11.2-10.1   c3.7,0,6,0.6,7.9,1.3l1.6-5.6c-1.7-0.7-5-1.5-9.4-1.5c-11.1,0-19.2,5.9-19.3,16.3c0,4.6,1.7,8.7,4.8,11.3c3.1,2.8,7.6,4.2,13.7,4.2   c4.5,0,8.9-1,11.3-1.8V260h-12.6V265.5z"></path>
&#x9;<path class="st0" d="M195.5,265.5h5.2v6.5c-0.6,0.3-2,0.5-3.8,0.5c-6.3,0-10.6-3.8-10.6-10.2c0-6.8,4.8-10.1,11.2-10.1   c3.7,0,6,0.6,7.9,1.3l1.6-5.6c-1.7-0.7-5-1.5-9.4-1.5c-11.1,0-19.2,5.9-19.3,16.3c0,4.6,1.7,8.7,4.8,11.3c3.1,2.8,7.6,4.2,13.7,4.2   c4.5,0,8.9-1,11.3-1.8V260h-12.6V265.5z"></path>
&#x9;<polygon class="st0" points="232.2,264.7 244.6,264.7 244.6,259 232.2,259 232.2,252.5 245.4,252.5 245.4,246.7 224.5,246.7    224.5,277.9 246.1,277.9 246.1,272.1 232.2,272.1  "></polygon>
&#x9;<path class="st0" d="M282.7,255.8c0,4.7,0.1,8.9,0.7,13h-0.1c-1.5-3.5-3.5-7.4-5.5-10.7l-7-11.4h-8.9v31.2h7v-9.4   c0-5.1-0.1-9.5-0.3-13.6l0.2,0c1.7,3.7,3.9,7.7,5.9,11l7.2,12h8v-31.2h-7V255.8z"></path>
&#x9;<path class="st0" d="M330.9,249.8c-3.3-2.3-7.4-3.3-13.8-3.3c-3.9,0-7.5,0.2-10.3,0.6v30.6c1.9,0.2,4.7,0.5,8.7,0.5   c6.6,0,12-1.3,15.6-4c3.3-2.5,5.6-6.7,5.6-12.6C336.6,256.1,334.4,252.2,330.9,249.8z M317,272.7c-1,0-2,0-2.7-0.1v-20.4   c0.7-0.1,1.8-0.3,3.5-0.3c6.6,0,10.7,3.4,10.6,9.9C328.4,269.2,323.9,272.8,317,272.7z"></path>
&#x9;<path class="st0" d="M366.7,246.2c-10,0-16.4,7-16.4,16.3c0,8.9,5.9,15.9,15.9,15.9c9.9,0,16.6-6.2,16.6-16.4   C382.7,253.4,377,246.2,366.7,246.2z M366.5,272.8c-5.1,0-8.2-4.3-8.2-10.4c0-6.1,3-10.6,8.2-10.6c5.3,0,8.2,4.8,8.2,10.4   C374.6,268.3,371.7,272.8,366.5,272.8z"></path>
&#x9;<path class="st0" d="M416.3,263.3v-0.1c2.9-1,6-3.7,6-7.7c0-2.9-1.1-5-3.1-6.5c-2.4-1.8-5.9-2.5-10.9-2.5c-4.1,0-7.7,0.3-10.2,0.6   v30.8h7.6v-12.3h2.3c3.1,0,4.6,1.1,5.5,5c1,3.8,1.8,6.4,2.4,7.3h7.8c-0.7-1.2-1.7-5.3-2.8-8.8C419.9,266.2,418.6,264.2,416.3,263.3   z M408.6,260.5h-3v-8.6c0.5-0.1,1.6-0.2,3.5-0.2c3.5,0,5.6,1.5,5.6,4.4C414.7,258.8,412.4,260.5,408.6,260.5z"></path>
&#x9;<polygon class="st0" points="438.2,277.9 445.9,277.9 445.9,265.4 458,265.4 458,259.6 445.9,259.6 445.9,252.5 458.8,252.5    458.8,246.7 438.2,246.7  "></polygon>
&#x9;<path class="st1" d="M409,62.1c-7,9.1-18.6,13.6-18.6,13.6v44.8c0,0,0,0.2,0.1,0.2c0.1,0,0.2,0,0.3-0.2   c12.9-7.6,25.2-16.4,25.2-16.4v120.6h43.6V46.4h-41.4C418.2,46.4,416,53,409,62.1z"></path>
</g>
<g>
&#x9;<path class="st0" d="M187.4,336.2c0-4.2-2.5-5.8-7-5.8h-3.6v11.7h3.8C185,342.2,187.4,340.4,187.4,336.2z"></path>
&#x9;<path class="st0" d="M368.6,330.9h-4v24.9h4.2c7.1,0,10.1-3.8,10.1-12.4C378.9,334.1,375.1,330.9,368.6,330.9z"></path>
&#x9;<path class="st0" d="M153.3,329.7h-0.2c-0.6,2.2-1.2,4.4-2,7.3l-2.9,9.4h10.1l-2.8-9.2C154.5,334,153.9,332,153.3,329.7z"></path>
&#x9;<path class="st0" d="M128,330.5h-4.4v12.2h4.3c5.3,0,7-2.3,7-6.1C135,332.3,132.6,330.5,128,330.5z"></path>
&#x9;<path class="st0" d="M247.5,330c-4.8,0-8.1,3-8.1,12.7c0,9.8,3.3,13.1,8.3,13.1c5,0,8.1-3.1,8.1-12.7   C255.8,333.4,252.6,330,247.5,330z"></path>
&#x9;<path class="st0" d="M6.9,308.7V380h494.8v-71.2H6.9z M456.8,317.8l19.6,11.3l-7.3,4.1l-8.7-5.1v16.2h-7.4v-16.2l-8.7,5.1l-7.3-4.1   L456.8,317.8z M128,346.8h-4.4v12.7h-4.7v-33.1h10c6.6,0,11,2.7,11,9.6C139.9,342.4,136.3,346.8,128,346.8z M162.3,359.5l-2.8-9.1   h-12.6l-2.8,9.1h-4.9l10.5-33.1h7.1l10.6,33.1H162.3z M189.1,359.5l-5.9-10.6c-1-1.9-2.4-2.7-4.5-2.7h-1.9v13.3h-4.7v-33.1h9   c7,0,11.2,2.7,11.2,9.5c0,5.5-3.4,8.6-7.3,9.1v0.2c1.4,0.7,2.6,1.8,4.1,4.4l5.8,10H189.1z M217.9,330.5h-8.6v29h-4.8v-29h-8.7v-4.1   h22.1V330.5z M247.4,360c-8,0-12.9-4.6-12.9-16.9c0-12.2,5.3-17.2,13.3-17.2c7.9,0,12.9,4.6,12.9,16.9   C260.7,355,255.4,360,247.4,360z M285.7,330.5h-13.3v11.2h11.6v4.1h-11.6v13.7h-4.8v-33.1h18V330.5z M327.2,357.5   c-2.2,1.7-5.4,3-10.8,3c-8.8,0-13.4-5.6-13.4-16.9c0-12,6.5-17.2,14.6-17.2c5.8,0,8.5,2.1,9.5,3.1L324,333   c-1.4-1.3-3.4-2.4-6.7-2.4c-4.7,0-9.6,2.5-9.6,12.5c0,9.5,3.3,13.3,9.5,13.3c1.8,0,3.9-0.3,5.1-1V343h4.8V357.5z M353.9,360h-21.3   l-0.8-4.1l16.2-24.7V331h-14.6v-4.2H353l0.8,4.1l-16,24.7v0.2h16.2V360z M368.9,360h-9.1v-33.1h9.1c10.2,0,14.8,5.1,14.8,16.1   C383.8,353.1,379.7,360,368.9,360z M415.6,360h-6.1l-10.1-19c-1.4-2.7-2.6-5.4-4-8.3h-0.3c0.1,3,0.2,5.6,0.2,9.6V360h-4.6v-33.1   h6.3l9.9,18.7c1.4,2.6,2.9,5.5,4.1,8.2h0.3c-0.1-3.5-0.1-7-0.1-10v-16.9h4.5V360z M479.8,357.6l-23,13.3l-23-13.3v-25.2l7.4,4.2v17   l15.6,9.2l15.6-9.2v-17l7.4-4.2V357.6z"></path>
</g>
</svg>